<svg xmlns="http://www.w3.org/2000/svg" xmlns:xlink="http://www.w3.org/1999/xlink" width="500" zoomAndPan="magnify" viewBox="0 0 375 374.999991" height="300" preserveAspectRatio="xMidYMid meet" version="1.0"><defs><g/><clipPath id="e462dc53e4"><path d="M 34 136 L 122 136 L 122 232 L 34 232 Z M 34 136 " clip-rule="nonzero"/></clipPath><clipPath id="c10ace56d8"><path d="M 147.6875 171.796875 L 93.523438 250.148438 L 15.171875 195.988281 L 69.332031 117.632812 Z M 147.6875 171.796875 " clip-rule="nonzero"/></clipPath><clipPath id="e02827b31d"><path d="M 93.71875 249.867188 L 147.878906 171.515625 L 69.527344 117.355469 L 15.363281 195.707031 Z M 93.71875 249.867188 " clip-rule="nonzero"/></clipPath><clipPath id="c7716691d1"><path d="M 73.101562 165.839844 L 150.351562 165.839844 L 150.351562 193 L 73.101562 193 Z M 73.101562 165.839844 " clip-rule="nonzero"/></clipPath><clipPath id="794340b6f0"><path d="M 123 165.839844 L 150.351562 165.839844 L 150.351562 277.589844 L 123 277.589844 Z M 123 165.839844 " clip-rule="nonzero"/></clipPath></defs><rect x="-37.5" width="450" fill="#ffffff" y="-37.499999" height="449.999989" fill-opacity="1"/><rect x="-37.5" width="450" fill="#ffffff" y="-37.499999" height="449.999989" fill-opacity="1"/><g clip-path="url(#e462dc53e4)"><g clip-path="url(#c10ace56d8)"><g clip-path="url(#e02827b31d)"><path fill="#184d8f" d="M 97.214844 163.535156 L 96.210938 162.84375 C 84.621094 154.828125 68.671875 157.742188 60.660156 169.328125 C 52.65625 180.914062 55.558594 196.851562 67.136719 204.867188 C 78.726562 212.863281 94.660156 209.949219 102.667969 198.367188 L 103.359375 197.367188 L 121.375 209.820312 L 120.683594 210.820312 C 105.820312 232.324219 76.214844 237.742188 54.664062 222.871094 C 33.171875 207.988281 27.78125 178.378906 42.648438 156.875 C 57.527344 135.351562 87.140625 129.945312 108.667969 144.824219 L 109.667969 145.515625 L 97.214844 163.535156 " fill-opacity="1" fill-rule="nonzero"/></g></g></g><g clip-path="url(#c7716691d1)"><path fill="#8bc53f" d="M 73.074219 165.644531 L 123.632812 165.644531 L 150.335938 192.347656 L 99.777344 192.347656 Z M 73.074219 165.644531 " fill-opacity="1" fill-rule="evenodd"/></g><g clip-path="url(#794340b6f0)"><path fill="#184d8f" d="M 123.632812 250.886719 L 123.632812 165.644531 L 150.335938 192.347656 L 150.335938 277.589844 Z M 123.632812 250.886719 " fill-opacity="1" fill-rule="evenodd"/></g><g fill="#184d8f" fill-opacity="1"><g transform="translate(150.669955, 213.470506)"><g><path d="M 34.984375 -26.921875 C 35.140625 -25.191406 35.21875 -23.191406 35.21875 -20.921875 L 35.140625 -17.53125 C 35.140625 -16.894531 34.820312 -16.578125 34.1875 -16.578125 L 13.03125 -16.578125 C 12.769531 -16.578125 12.640625 -16.445312 12.640625 -16.1875 C 12.742188 -14.71875 12.847656 -13.640625 12.953125 -12.953125 C 13.210938 -11.210938 13.945312 -9.816406 15.15625 -8.765625 C 16.375 -7.710938 17.90625 -7.1875 19.75 -7.1875 C 21.320312 -7.238281 22.644531 -7.628906 23.71875 -8.359375 C 24.800781 -9.097656 25.632812 -10.128906 26.21875 -11.453125 C 26.476562 -12.023438 26.875 -12.234375 27.40625 -12.078125 L 33.875 -10.734375 C 34.507812 -10.523438 34.722656 -10.132812 34.515625 -9.5625 C 33.460938 -6.289062 31.65625 -3.773438 29.09375 -2.015625 C 26.539062 -0.253906 23.425781 0.625 19.75 0.625 C 15.375 0.625 11.867188 -0.425781 9.234375 -2.53125 C 6.609375 -4.632812 4.898438 -7.554688 4.109375 -11.296875 C 3.847656 -12.710938 3.675781 -14.207031 3.59375 -15.78125 C 3.507812 -17.363281 3.46875 -19.472656 3.46875 -22.109375 C 3.46875 -24.847656 3.601562 -26.925781 3.875 -28.34375 C 4.394531 -32.1875 6.023438 -35.253906 8.765625 -37.546875 C 11.503906 -39.835938 14.976562 -40.984375 19.1875 -40.984375 C 23.769531 -40.984375 27.46875 -39.691406 30.28125 -37.109375 C 33.101562 -34.535156 34.671875 -31.140625 34.984375 -26.921875 Z M 19.265625 -33.09375 C 17.523438 -33.09375 16.085938 -32.578125 14.953125 -31.546875 C 13.828125 -30.523438 13.132812 -29.144531 12.875 -27.40625 C 12.71875 -26.25 12.640625 -24.929688 12.640625 -23.453125 C 12.640625 -23.191406 12.769531 -23.0625 13.03125 -23.0625 L 25.578125 -23.0625 C 25.847656 -23.0625 25.984375 -23.191406 25.984375 -23.453125 C 25.878906 -25.242188 25.773438 -26.535156 25.671875 -27.328125 C 25.453125 -29.054688 24.765625 -30.445312 23.609375 -31.5 C 22.453125 -32.5625 21.003906 -33.09375 19.265625 -33.09375 Z M 19.265625 -33.09375 "/></g></g></g><g fill="#184d8f" fill-opacity="1"><g transform="translate(188.890988, 213.470506)"><g><path d="M 21.71875 -40.828125 C 23.1875 -40.828125 24.472656 -40.507812 25.578125 -39.875 C 26.003906 -39.664062 26.164062 -39.269531 26.0625 -38.6875 L 24.71875 -31.515625 C 24.664062 -30.878906 24.296875 -30.691406 23.609375 -30.953125 C 22.921875 -31.210938 22.132812 -31.34375 21.25 -31.34375 C 20.875 -31.34375 20.316406 -31.289062 19.578125 -31.1875 C 17.796875 -31.03125 16.3125 -30.210938 15.125 -28.734375 C 13.9375 -27.265625 13.34375 -25.425781 13.34375 -23.21875 L 13.34375 -0.953125 C 13.34375 -0.679688 13.25 -0.453125 13.0625 -0.265625 C 12.882812 -0.0859375 12.660156 0 12.390625 0 L 5.140625 0 C 4.867188 0 4.640625 -0.0859375 4.453125 -0.265625 C 4.273438 -0.453125 4.1875 -0.679688 4.1875 -0.953125 L 4.1875 -39.40625 C 4.1875 -39.664062 4.273438 -39.890625 4.453125 -40.078125 C 4.640625 -40.265625 4.867188 -40.359375 5.140625 -40.359375 L 12.390625 -40.359375 C 12.660156 -40.359375 12.882812 -40.265625 13.0625 -40.078125 C 13.25 -39.890625 13.34375 -39.664062 13.34375 -39.40625 L 13.34375 -36.015625 C 13.34375 -35.796875 13.378906 -35.671875 13.453125 -35.640625 C 13.535156 -35.617188 13.628906 -35.691406 13.734375 -35.859375 C 15.628906 -39.171875 18.289062 -40.828125 21.71875 -40.828125 Z M 21.71875 -40.828125 "/></g></g></g><g fill="#184d8f" fill-opacity="1"><g transform="translate(215.898435, 213.470506)"><g><path d="M 18.796875 -40.984375 C 21.796875 -40.984375 24.453125 -40.414062 26.765625 -39.28125 C 29.085938 -38.15625 30.890625 -36.59375 32.171875 -34.59375 C 33.460938 -32.59375 34.109375 -30.300781 34.109375 -27.71875 L 34.109375 -0.953125 C 34.109375 -0.679688 34.015625 -0.453125 33.828125 -0.265625 C 33.648438 -0.0859375 33.429688 0 33.171875 0 L 25.90625 0 C 25.632812 0 25.40625 -0.0859375 25.21875 -0.265625 C 25.039062 -0.453125 24.953125 -0.679688 24.953125 -0.953125 L 24.953125 -2.921875 C 24.953125 -3.078125 24.898438 -3.179688 24.796875 -3.234375 C 24.691406 -3.285156 24.585938 -3.257812 24.484375 -3.15625 C 22.265625 -0.632812 19.078125 0.625 14.921875 0.625 C 11.453125 0.625 8.503906 -0.304688 6.078125 -2.171875 C 3.660156 -4.035156 2.453125 -7.078125 2.453125 -11.296875 C 2.453125 -15.710938 3.859375 -19 6.671875 -21.15625 C 9.484375 -23.320312 13.367188 -24.40625 18.328125 -24.40625 L 24.5625 -24.40625 C 24.820312 -24.40625 24.953125 -24.535156 24.953125 -24.796875 L 24.953125 -26.765625 C 24.953125 -28.710938 24.410156 -30.253906 23.328125 -31.390625 C 22.253906 -32.523438 20.769531 -33.09375 18.875 -33.09375 C 17.34375 -33.09375 16.085938 -32.734375 15.109375 -32.015625 C 14.140625 -31.304688 13.523438 -30.347656 13.265625 -29.140625 C 13.109375 -28.554688 12.738281 -28.265625 12.15625 -28.265625 L 4.5 -28.75 C 4.238281 -28.75 4.015625 -28.835938 3.828125 -29.015625 C 3.640625 -29.203125 3.570312 -29.398438 3.625 -29.609375 C 3.945312 -32.984375 5.515625 -35.722656 8.328125 -37.828125 C 11.148438 -39.929688 14.640625 -40.984375 18.796875 -40.984375 Z M 17.296875 -6.796875 C 19.347656 -6.796875 21.132812 -7.382812 22.65625 -8.5625 C 24.1875 -9.75 24.953125 -11.316406 24.953125 -13.265625 L 24.953125 -17.375 C 24.953125 -17.632812 24.820312 -17.765625 24.5625 -17.765625 L 19.265625 -17.765625 C 16.953125 -17.765625 15.125 -17.265625 13.78125 -16.265625 C 12.4375 -15.265625 11.765625 -13.816406 11.765625 -11.921875 C 11.765625 -10.234375 12.273438 -8.957031 13.296875 -8.09375 C 14.328125 -7.226562 15.660156 -6.796875 17.296875 -6.796875 Z M 17.296875 -6.796875 "/></g></g></g><g fill="#184d8f" fill-opacity="1"><g transform="translate(253.645656, 213.470506)"><g><path d="M 22.578125 -40.984375 C 26.421875 -40.984375 29.421875 -39.769531 31.578125 -37.34375 C 33.742188 -34.925781 34.828125 -31.585938 34.828125 -27.328125 L 34.828125 -0.953125 C 34.828125 -0.679688 34.734375 -0.453125 34.546875 -0.265625 C 34.359375 -0.0859375 34.132812 0 33.875 0 L 26.609375 0 C 26.347656 0 26.125 -0.0859375 25.9375 -0.265625 C 25.757812 -0.453125 25.671875 -0.679688 25.671875 -0.953125 L 25.671875 -26.0625 C 25.671875 -28.21875 25.128906 -29.925781 24.046875 -31.1875 C 22.960938 -32.457031 21.5 -33.09375 19.65625 -33.09375 C 17.769531 -33.09375 16.257812 -32.445312 15.125 -31.15625 C 13.988281 -29.863281 13.421875 -28.140625 13.421875 -25.984375 L 13.421875 -0.953125 C 13.421875 -0.679688 13.328125 -0.453125 13.140625 -0.265625 C 12.960938 -0.0859375 12.742188 0 12.484375 0 L 5.21875 0 C 4.945312 0 4.71875 -0.0859375 4.53125 -0.265625 C 4.351562 -0.453125 4.265625 -0.679688 4.265625 -0.953125 L 4.265625 -39.40625 C 4.265625 -39.664062 4.351562 -39.890625 4.53125 -40.078125 C 4.71875 -40.265625 4.945312 -40.359375 5.21875 -40.359375 L 12.484375 -40.359375 C 12.742188 -40.359375 12.960938 -40.265625 13.140625 -40.078125 C 13.328125 -39.890625 13.421875 -39.664062 13.421875 -39.40625 L 13.421875 -37.359375 C 13.421875 -37.191406 13.472656 -37.082031 13.578125 -37.03125 C 13.679688 -36.976562 13.789062 -37.03125 13.90625 -37.1875 C 16.007812 -39.71875 18.898438 -40.984375 22.578125 -40.984375 Z M 22.578125 -40.984375 "/></g></g></g><g fill="#184d8f" fill-opacity="1"><g transform="translate(292.419493, 213.470506)"><g><path d="M 23.375 -34.34375 C 23.375 -34.082031 23.28125 -33.859375 23.09375 -33.671875 C 22.914062 -33.492188 22.691406 -33.40625 22.421875 -33.40625 L 16.03125 -33.40625 C 15.769531 -33.40625 15.640625 -33.273438 15.640625 -33.015625 L 15.640625 -13.1875 C 15.640625 -11.238281 16.019531 -9.851562 16.78125 -9.03125 C 17.539062 -8.21875 18.738281 -7.835938 20.375 -7.890625 L 21.796875 -7.890625 C 22.054688 -7.890625 22.28125 -7.796875 22.46875 -7.609375 C 22.65625 -7.429688 22.75 -7.210938 22.75 -6.953125 L 22.75 -0.953125 C 22.75 -0.367188 22.429688 -0.0234375 21.796875 0.078125 L 18.484375 0.078125 C 14.585938 0.078125 11.664062 -0.601562 9.71875 -1.96875 C 7.769531 -3.34375 6.796875 -5.925781 6.796875 -9.71875 L 6.796875 -33.015625 C 6.796875 -33.273438 6.660156 -33.40625 6.390625 -33.40625 L 2.765625 -33.40625 C 2.503906 -33.40625 2.28125 -33.492188 2.09375 -33.671875 C 1.90625 -33.859375 1.8125 -34.082031 1.8125 -34.34375 L 1.8125 -39.40625 C 1.8125 -39.664062 1.90625 -39.890625 2.09375 -40.078125 C 2.28125 -40.265625 2.503906 -40.359375 2.765625 -40.359375 L 6.390625 -40.359375 C 6.660156 -40.359375 6.796875 -40.488281 6.796875 -40.75 L 6.796875 -49.75 C 6.796875 -50.007812 6.882812 -50.234375 7.0625 -50.421875 C 7.25 -50.609375 7.472656 -50.703125 7.734375 -50.703125 L 14.6875 -50.703125 C 14.945312 -50.703125 15.171875 -50.609375 15.359375 -50.421875 C 15.546875 -50.234375 15.640625 -50.007812 15.640625 -49.75 L 15.640625 -40.75 C 15.640625 -40.488281 15.769531 -40.359375 16.03125 -40.359375 L 22.421875 -40.359375 C 22.691406 -40.359375 22.914062 -40.265625 23.09375 -40.078125 C 23.28125 -39.890625 23.375 -39.664062 23.375 -39.40625 Z M 23.375 -34.34375 "/></g></g></g></svg>